<svg xmlns="http://www.w3.org/2000/svg"
     xmlns:xlink="http://www.w3.org/1999/xlink"
     xmlns:ev="http://www.w3.org/2001/sml-events"
     style="width: 1200px; height: 900px; margin: 50px;"
     viewBox="0 0 1200 900"
     >

    <!-- Small forest in the northwest-->
    <image href="tree.svg" x="0" y="0" width="50" height="50" />
    <image href="tree.svg" x="50" y="0" width="50" height="50" />
    <image href="tree.svg" x="0" y="50" width="50" height="50" />
    <image href="tree.svg" x="50" y="50" width="50" height="50" />
    <image href="tree.svg" x="100" y="50" width="50" height="50" />
    <image href="tree.svg" x="50" y="100" width="50" height="50" />
    <image href="tree.svg" x="100" y="100" width="50" height="50" />


    <!-- Medium forest in the west-->
    <image href="tree.svg" x="300" y="300" width="50" height="50" />
    <image href="tree.svg" x="350" y="300" width="50" height="50" />

    <image href="tree.svg" x="250" y="350" width="50" height="50" />
    <image href="tree.svg" x="300" y="350" width="50" height="50" />
    <image href="tree.svg" x="350" y="350" width="50" height="50" />
    <image href="tree.svg" x="400" y="350" width="50" height="50" />

    <image href="tree.svg" x="250" y="400" width="50" height="50" />
    <image href="tree.svg" x="300" y="400" width="50" height="50" />
    <image href="tree.svg" x="350" y="400" width="50" height="50" />
    <image href="tree.svg" x="400" y="400" width="50" height="50" />

    <image href="tree.svg" x="250" y="450" width="50" height="50" />
    <image href="tree.svg" x="300" y="450" width="50" height="50" />
    <image href="tree.svg" x="350" y="450" width="50" height="50" />
    <image href="tree.svg" x="400" y="450" width="50" height="50" />

    <image href="tree.svg" x="300" y="500" width="50" height="50" />
    <image href="tree.svg" x="350" y="500" width="50" height="50" />

    <!-- Large forest in the east-->
    <image href="tree.svg" x="900" y="100" width="50" height="50" />
    <image href="tree.svg" x="950" y="100" width="50" height="50" />

    <image href="tree.svg" x="900" y="150" width="50" height="50" />
    <image href="tree.svg" x="950" y="150" width="50" height="50" />
    <image href="tree.svg" x="1000" y="150" width="50" height="50" />

    <image href="tree.svg" x="850" y="200" width="50" height="50" />
    <image href="tree.svg" x="900" y="200" width="50" height="50" />
    <image href="tree.svg" x="950" y="200" width="50" height="50" />
    <image href="tree.svg" x="1000" y="200" width="50" height="50" />

    <image href="tree.svg" x="850" y="250" width="50" height="50" />
    <image href="tree.svg" x="900" y="250" width="50" height="50" />
    <image href="tree.svg" x="950" y="250" width="50" height="50" />
    <image href="tree.svg" x="1000" y="250" width="50" height="50" />

    <image href="tree.svg" x="900" y="300" width="50" height="50" />
    <image href="tree.svg" x="950" y="300" width="50" height="50" />
    <image href="tree.svg" x="1000" y="300" width="50" height="50" />

    <image href="tree.svg" x="900" y="350" width="50" height="50" />
    <image href="tree.svg" x="950" y="350" width="50" height="50" />
    <image href="tree.svg" x="1000" y="350" width="50" height="50" />
    <image href="tree.svg" x="1050" y="350" width="50" height="50" />

    <image href="tree.svg" x="900" y="400" width="50" height="50" />
    <image href="tree.svg" x="950" y="400" width="50" height="50" />
    <image href="tree.svg" x="1000" y="400" width="50" height="50" />
    <image href="tree.svg" x="1050" y="400" width="50" height="50" />

    <image href="tree.svg" x="900" y="450" width="50" height="50" />
    <image href="tree.svg" x="950" y="450" width="50" height="50" />
    <image href="tree.svg" x="1000" y="450" width="50" height="50" />

    <image href="tree.svg" x="900" y="500" width="50" height="50" />
    <image href="tree.svg" x="950" y="500" width="50" height="50" />
    <image href="tree.svg" x="1000" y="500" width="50" height="50" />

    <image href="tree.svg" x="800" y="550" width="50" height="50" />
    <image href="tree.svg" x="850" y="550" width="50" height="50" />
    <image href="tree.svg" x="900" y="550" width="50" height="50" />
    <image href="tree.svg" x="950" y="550" width="50" height="50" />
    <image href="tree.svg" x="1000" y="550" width="50" height="50" />

    <image href="tree.svg" x="800" y="600" width="50" height="50" />
    <image href="tree.svg" x="850" y="600" width="50" height="50" />
    <image href="tree.svg" x="900" y="600" width="50" height="50" />
    <image href="tree.svg" x="950" y="600" width="50" height="50" />
    <image href="tree.svg" x="1000" y="600" width="50" height="50" />

    <image href="tree.svg" x="950" y="650" width="50" height="50" />
    <image href="tree.svg" x="1000" y="650" width="50" height="50" />


    <!-- Small lake in the west-->
    <image href="lake.svg" x="50" y="350" width="50" height="50" />
    <image href="lake.svg" x="100" y="350" width="50" height="50" />
    <image href="lake.svg" x="0" y="400" width="50" height="50" />
    <image href="lake.svg" x="50" y="400" width="50" height="50" />
    <image href="lake.svg" x="100" y="400" width="50" height="50" />
    <image href="lake.svg" x="0" y="450" width="50" height="50" />
    <image href="lake.svg" x="50" y="450" width="50" height="50" />
    <image href="lake.svg" x="100" y="450" width="50" height="50" />


    <!-- Long lake in the mideast-->
    <image href="lake.svg" x="750" y="200" width="50" height="50" />
    <image href="lake.svg" x="700" y="250" width="50" height="50" />
    <image href="lake.svg" x="750" y="250" width="50" height="50" />
    <image href="lake.svg" x="650" y="300" width="50" height="50" />
    <image href="lake.svg" x="700" y="300" width="50" height="50" />
    <image href="lake.svg" x="750" y="300" width="50" height="50" />
    <image href="lake.svg" x="650" y="350" width="50" height="50" />
    <image href="lake.svg" x="700" y="350" width="50" height="50" />
    <image href="lake.svg" x="750" y="350" width="50" height="50" />
    <image href="lake.svg" x="700" y="400" width="50" height="50" />
    <image href="lake.svg" x="750" y="400" width="50" height="50" />
    <image href="lake.svg" x="700" y="450" width="50" height="50" />
    <image href="lake.svg" x="750" y="450" width="50" height="50" />
    <image href="lake.svg" x="700" y="500" width="50" height="50" />
    <image href="lake.svg" x="750" y="500" width="50" height="50" />
    <image href="lake.svg" x="700" y="550" width="50" height="50" />
    <image href="lake.svg" x="750" y="550" width="50" height="50" />
    <image href="lake.svg" x="700" y="600" width="50" height="50" />
    <image href="lake.svg" x="750" y="600" width="50" height="50" />
    <image href="lake.svg" x="650" y="650" width="50" height="50" />
    <image href="lake.svg" x="700" y="650" width="50" height="50" />
    <image href="lake.svg" x="750" y="650" width="50" height="50" />
    <image href="lake.svg" x="650" y="700" width="50" height="50" />
    <image href="lake.svg" x="700" y="700" width="50" height="50" />
    <image href="lake.svg" x="750" y="700" width="50" height="50" />



    <!-- vertical grid lines-->
    <rect x="50" y="0" width="1" height="900" fill="#a0a0a0"/>
    <rect x="100" y="0" width="1" height="900" fill="#a0a0a0"/>
    <rect x="150" y="0" width="1" height="900" fill="#a0a0a0"/>
    <rect x="200" y="0" width="1" height="900" fill="#a0a0a0"/>
    <rect x="250" y="0" width="1" height="900" fill="#a0a0a0"/>
    <rect x="300" y="0" width="1" height="900" fill="#a0a0a0"/>
    <rect x="350" y="0" width="1" height="900" fill="#a0a0a0"/>
    <rect x="400" y="0" width="1" height="900" fill="#a0a0a0"/>
    <rect x="450" y="0" width="1" height="900" fill="#a0a0a0"/>
    <rect x="500" y="0" width="1" height="900" fill="#a0a0a0"/>
    <rect x="550" y="0" width="1" height="900" fill="#a0a0a0"/>
    <rect x="600" y="0" width="1" height="900" fill="#a0a0a0"/>
    <rect x="650" y="0" width="1" height="900" fill="#a0a0a0"/>
    <rect x="700" y="0" width="1" height="900" fill="#a0a0a0"/>
    <rect x="750" y="0" width="1" height="900" fill="#a0a0a0"/>
    <rect x="800" y="0" width="1" height="900" fill="#a0a0a0"/>
    <rect x="850" y="0" width="1" height="900" fill="#a0a0a0"/>
    <rect x="900" y="0" width="1" height="900" fill="#a0a0a0"/>
    <rect x="950" y="0" width="1" height="900" fill="#a0a0a0"/>
    <rect x="1000" y="0" width="1" height="900" fill="#a0a0a0"/>
    <rect x="1050" y="0" width="1" height="900" fill="#a0a0a0"/>
    <rect x="1100" y="0" width="1" height="900" fill="#a0a0a0"/>
    <rect x="1150" y="0" width="1" height="900" fill="#a0a0a0"/>
        
    <!-- horizontal grid lines-->    
    <rect x="0" y="50" width="1200" height="1" fill="#a0a0a0"/>
    <rect x="0" y="100" width="1200" height="1" fill="#a0a0a0"/>
    <rect x="0" y="150" width="1200" height="1" fill="#a0a0a0"/>
    <rect x="0" y="200" width="1200" height="1" fill="#a0a0a0"/>
    <rect x="0" y="250" width="1200" height="1" fill="#a0a0a0"/>
    <rect x="0" y="300" width="1200" height="1" fill="#a0a0a0"/>
    <rect x="0" y="350" width="1200" height="1" fill="#a0a0a0"/>
    <rect x="0" y="400" width="1200" height="1" fill="#a0a0a0"/>
    <rect x="0" y="450" width="1200" height="1" fill="#a0a0a0"/>
    <rect x="0" y="500" width="1200" height="1" fill="#a0a0a0"/>
    <rect x="0" y="550" width="1200" height="1" fill="#a0a0a0"/>
    <rect x="0" y="600" width="1200" height="1" fill="#a0a0a0"/>
    <rect x="0" y="650" width="1200" height="1" fill="#a0a0a0"/>
    <rect x="0" y="700" width="1200" height="1" fill="#a0a0a0"/>
    <rect x="0" y="750" width="1200" height="1" fill="#a0a0a0"/>
    <rect x="0" y="800" width="1200" height="1" fill="#a0a0a0"/>
    <rect x="0" y="850" width="1200" height="1" fill="#a0a0a0"/>

    <!-- border grid lines-->
    <rect x="0" y="0" width="1" height="900" fill="#101010"/>
    <rect x="600" y="0" width="1" height="900" fill="#101010"/>
    <rect x="1199" y="0" width="1" height="900" fill="#101010"/>
    <rect x="0" y="0" width="1200" height="1" fill="#101010"/>
    <rect x="0" y="450" width="1200" height="1" fill="#101010"/>
    <rect x="0" y="899" width="1200" height="1" fill="#101010"/>



</svg>